# xmcd
#
# Track frame offsets: 
#        150
#        17383
#        34575
#        54312
#        79278
#        111935
#        129029
#        147450
#        164279
#        180449
#        195648
#        218732
#        236981
#        254230
#
# Disc length: 3588 seconds
#
# Revision: 0
# Processed by: cddbd v1.5.2PL0 Copyright (c) Steve Scherf et al.
# Submitted via: ExactAudioCopyFreeDBPlugin 1.0
#
DISCID=bf0e020e
DTITLE=Victor Nesrallah - Collections: Roots World Folk Blues
DYEAR=2014
DGENRE=Blues
TTITLE0=The Hills of Liban
TTITLE1=A Little More Kindly
TTITLE2=Real Love
TTITLE3=Don't Think For Yourself
TTITLE4=Blood From the Stone
TTITLE5=The Wannabe Club
TTITLE6=Hard Time Blues
TTITLE7=Worried Blues
TTITLE8=Forgive and Forget
TTITLE9=Fear
TTITLE10=Hope
TTITLE11=Stone Boy
TTITLE12=Images
TTITLE13=The Picture
EXTD=
EXTT0=
EXTT1=
EXTT2=
EXTT3=
EXTT4=
EXTT5=
EXTT6=
EXTT7=
EXTT8=
EXTT9=
EXTT10=
EXTT11=
EXTT12=
EXTT13=
PLAYORDER=
